<?xml version="1.0" encoding="utf-8"?>
<!-- Generator: Adobe Illustrator 21.0.2, SVG Export Plug-In . SVG Version: 6.00 Build 0)  -->
<!DOCTYPE svg PUBLIC "-//W3C//DTD SVG 1.1//EN" "http://www.w3.org/Graphics/SVG/1.1/DTD/svg11.dtd">
<svg version="1.1" id="Ebene_1" xmlns="http://www.w3.org/2000/svg" xmlns:xlink="http://www.w3.org/1999/xlink" x="0px" y="0px"
	 width="155.3px" height="108px" viewBox="0 0 155.3 108" style="enable-background:new 0 0 155.3 108;" xml:space="preserve">
<g>
	<rect x="-20.8" y="-17" style="fill:#FFFFFF;" width="211.5" height="150"/>
	<g>
		<path d="M53.7,70.6c0,1.2-0.8,1.6-1.4,1.6c-0.8,0-1.2-0.6-1.2-1.4v-4.9H50v5.4c0,1.2,0.7,1.8,1.9,1.8c0.7,0,1.4-0.3,1.8-1h0V73
			h1.2c0-0.5-0.1-1-0.1-1.5v-5.6h-1.1V70.6L53.7,70.6z"/>
		<path d="M61.9,73v-4.9c0-1.4-0.4-2.3-1.9-2.3c-0.9,0-1.4,0.3-1.9,1h-0.1v-0.9h-1.2c0,0.5,0.1,1,0.1,1.5V73h1.2v-4.2
			c0-1,0.2-2.1,1.4-2.1c1,0,1.2,0.6,1.2,1.4V73H61.9L61.9,73z"/>
		<path d="M67.6,69.1c0,1.4,0,3-1.3,3c-1.4,0-1.4-1.5-1.4-2.6c0-1.9,0.2-2.9,1.4-2.9C67.5,66.7,67.6,68.2,67.6,69.1L67.6,69.1z
			 M67.6,66.6L67.6,66.6c-0.4-0.6-0.9-0.9-1.6-0.9c-2.3,0-2.3,2-2.3,3.8c0,3.1,1.1,3.6,2.3,3.6c0.7,0,1.2-0.3,1.6-1h0V73h1.1V62.9
			h-1.1V66.6L67.6,66.6z"/>
		<polygon points="74.8,73 74.8,68.3 78.4,68.3 78.4,67.2 74.8,67.2 74.8,64 78.6,64 78.6,62.9 73.5,62.9 73.5,73 74.8,73 		"/>
		<path d="M82.1,72.2c-1.2,0-1.5-0.8-1.5-3.1c0-1.9,0.6-2.4,1.5-2.4c0.9,0,1.5,0.4,1.5,2.4C83.6,71.3,83.3,72.2,82.1,72.2L82.1,72.2
			z M82.1,73.1c1.5,0,2.7-0.4,2.7-3.6c0-2.1-0.2-3.8-2.7-3.8c-2.5,0-2.7,1.7-2.7,3.8C79.4,72.7,80.6,73.1,82.1,73.1L82.1,73.1z"/>
		<path d="M87.7,65.9h-1.1V73h1.1v-4.2c0-1,0.3-1.9,1.6-1.9c0.2,0,0.4,0,0.6,0.1v-1.2c-1.1,0-1.7,0.1-2.2,1.2h0V65.9L87.7,65.9z"/>
		<path d="M95.7,71c0-2.2-3.5-2.1-3.5-3.4c0-0.6,0.5-1,1.1-1c0.7,0,1.1,0.4,1.1,1.1h1.3c0.1-1.4-1-2-2.2-2c-2,0-2.4,1.2-2.4,1.9
			c0,2.1,3.5,2.1,3.5,3.4c0,0.7-0.5,1.1-1.2,1.1c-1.2,0-1.2-1-1.2-1.4h-1.3c0,1.6,0.9,2.3,2.4,2.3C94.6,73.1,95.7,72.5,95.7,71
			L95.7,71z"/>
		<path d="M102,68.2c0.1-1.6-0.8-2.4-2.2-2.4c-2.4,0-2.7,1.7-2.7,3.8c0,3.1,1.2,3.6,2.7,3.6c0.8,0,2.3-0.5,2.2-2.5h-1.2
			c0,1.3-0.8,1.6-1,1.6c-1.2,0-1.5-0.8-1.5-3.1c0-1.9,0.6-2.4,1.5-2.4c0.4,0,1,0.3,1,1.5H102L102,68.2z"/>
		<path d="M108.9,73v-5c0-1.6-0.7-2.2-1.9-2.2c-0.9,0-1.5,0.2-1.9,1H105v-3.9h-1.1V73h1.1v-4.2c0-1.2,0.3-2.1,1.4-2.1
			c1,0,1.3,0.6,1.3,1.5V73H108.9L108.9,73z"/>
		<path d="M114.7,70.6c0,1.2-0.8,1.6-1.4,1.6c-0.8,0-1.2-0.6-1.2-1.4v-4.9h-1.1v5.4c0,1.2,0.7,1.8,1.9,1.8c0.7,0,1.4-0.3,1.8-1h0V73
			h1.2c0-0.5-0.1-1-0.1-1.5v-5.6h-1.1V70.6L114.7,70.6z"/>
		<path d="M122.9,73v-4.9c0-1.4-0.4-2.3-1.9-2.3c-0.9,0-1.4,0.3-1.9,1H119v-0.9h-1.2c0,0.5,0.1,1,0.1,1.5V73h1.1v-4.2
			c0-1,0.2-2.1,1.4-2.1c1,0,1.2,0.6,1.2,1.4V73H122.9L122.9,73z"/>
		<path d="M128.6,69.4c0,1,0,2.6-1.3,2.6c-0.9,0-1.4-0.5-1.4-2.8c0-0.9,0-2.5,1.3-2.5C128.6,66.7,128.6,68.3,128.6,69.4L128.6,69.4z
			 M128.5,66.8L128.5,66.8c-0.4-0.7-0.9-1-1.7-1c-0.6,0-2.2,0.2-2.2,3.5c0,2.1,0.4,3.8,2.3,3.8c0.6,0,1.3-0.3,1.6-0.9h0v1.5
			c0,0.7-0.4,1.2-1.2,1.2c-0.6,0-1.1-0.4-1.1-1h-1.3c-0.1,1.3,1,1.9,2.1,1.9c1.6,0,2.6-0.4,2.6-2v-7.8h-1.1V66.8L128.5,66.8z"/>
		<path d="M49.5,50.9v0.9h1.1V58h1.1v-6.2h1.4v-0.9h-1.4v-1.2c0-0.6,0.2-1.1,1.4-1v-0.8c-0.2,0-0.3,0-0.5,0c-1,0-2,0.3-2,1.7v1.4
			H49.5L49.5,50.9z"/>
		<path d="M56.2,48.3h-1.3v1.5h1.3V48.3L56.2,48.3z M58.6,48.3h-1.3v1.5h1.3V48.3L58.6,48.3z M58,55.6c0,1.2-0.8,1.6-1.4,1.6
			c-0.8,0-1.2-0.6-1.2-1.4v-4.9h-1.1v5.4c0,1.2,0.7,1.8,1.9,1.8c0.7,0,1.4-0.3,1.8-1h0V58h1.2c0-0.5-0.1-1-0.1-1.5v-5.6H58V55.6
			L58,55.6z"/>
		<path d="M62.4,50.9h-1.1V58h1.1v-4.2c0-1,0.3-1.9,1.6-1.9c0.2,0,0.4,0,0.6,0.1v-1.2c-1.1,0-1.7,0.1-2.2,1.2h0V50.9L62.4,50.9z"/>
		<path d="M69.4,53.2h1.4c1.3,0,2.3,0.3,2.3,1.9c0,0.7-0.5,1.7-1.9,1.7h-1.8V53.2L69.4,53.2z M69.4,49h1.8c1.1,0,1.6,0.7,1.6,1.5
			c0,1-0.5,1.6-1.5,1.6h-1.9V49L69.4,49z M71.4,58c1.1,0,3-0.3,3-2.8c0-1.4-0.6-2.3-2.1-2.4v-0.1c1.3-0.3,1.7-1.1,1.7-2.4
			c0-0.2-0.1-0.8-0.4-1.3c-0.4-0.6-0.9-1-2.3-1h-3.3V58H71.4L71.4,58z"/>
		<path d="M77.4,50.9h-1.1V58h1.1V50.9L77.4,50.9z M76.2,49.1h1.3v-1.2h-1.3V49.1L76.2,49.1z"/>
		<polygon points="80.7,47.9 79.5,47.9 79.5,58 80.7,58 80.7,47.9 		"/>
		<path d="M86.4,54.1c0,1.4,0,3-1.3,3c-1.4,0-1.4-1.5-1.4-2.6c0-1.9,0.2-2.9,1.4-2.9C86.3,51.7,86.4,53.2,86.4,54.1L86.4,54.1z
			 M86.4,51.6L86.4,51.6c-0.4-0.6-0.9-0.9-1.6-0.9c-2.3,0-2.3,2-2.3,3.8c0,3.1,1.1,3.6,2.3,3.6c0.7,0,1.2-0.3,1.6-1h0V58h1.1V47.9
			h-1.1V51.6L86.4,51.6z"/>
		<path d="M93.4,55.6c0,1.2-0.8,1.6-1.4,1.6c-0.8,0-1.2-0.6-1.2-1.4v-4.9h-1.2v5.4c0,1.2,0.7,1.8,1.9,1.8c0.7,0,1.4-0.3,1.8-1h0V58
			h1.2c0-0.5-0.1-1-0.1-1.5v-5.6h-1.1V55.6L93.4,55.6z"/>
		<path d="M101.6,58v-4.9c0-1.4-0.4-2.3-1.9-2.3c-0.9,0-1.4,0.3-1.9,1h-0.1v-0.9h-1.2c0,0.5,0.1,1,0.1,1.5V58h1.1v-4.2
			c0-1,0.2-2.1,1.4-2.1c1,0,1.2,0.6,1.2,1.4V58H101.6L101.6,58z"/>
		<path d="M107.3,54.4c0,1,0,2.6-1.3,2.6c-0.9,0-1.4-0.5-1.4-2.8c0-0.9,0-2.5,1.3-2.5C107.4,51.7,107.3,53.3,107.3,54.4L107.3,54.4z
			 M107.3,51.8L107.3,51.8c-0.3-0.7-0.9-1-1.7-1c-0.6,0-2.2,0.2-2.2,3.5c0,2.1,0.4,3.8,2.3,3.8c0.6,0,1.3-0.3,1.6-0.9h0v1.5
			c0,0.7-0.4,1.2-1.2,1.2c-0.6,0-1.1-0.4-1.1-1h-1.3c-0.1,1.3,1,1.9,2.1,1.9c1.6,0,2.6-0.4,2.6-2v-7.8h-1.1V51.8L107.3,51.8z"/>
		<path d="M51.3,38.2h1.4c1.3,0,2.3,0.3,2.3,1.9c0,0.7-0.5,1.7-1.9,1.7h-1.8V38.2L51.3,38.2z M51.3,34h1.8c1.1,0,1.6,0.7,1.6,1.5
			c0,1-0.5,1.6-1.5,1.6h-1.9V34L51.3,34z M53.3,43c1.2,0,3-0.3,3-2.8c0-1.4-0.6-2.3-2.1-2.4v-0.1c1.3-0.3,1.7-1.1,1.7-2.4
			c0-0.2-0.1-0.8-0.4-1.3c-0.4-0.6-0.9-1-2.3-1H50V43H53.3L53.3,43z"/>
		<path d="M61.7,40.6c0,1.2-0.8,1.6-1.4,1.6c-0.8,0-1.2-0.6-1.2-1.4v-4.9H58v5.4c0,1.2,0.7,1.8,1.9,1.8c0.7,0,1.4-0.3,1.8-1h0V43
			h1.2c0-0.5-0.1-1-0.1-1.5v-5.6h-1.1V40.6L61.7,40.6z"/>
		<path d="M69.9,43v-4.9c0-1.4-0.4-2.3-1.9-2.3c-0.9,0-1.4,0.3-1.9,1h-0.1v-0.9h-1.2c0,0.5,0.1,1,0.1,1.5V43h1.1v-4.2
			c0-1,0.2-2.1,1.4-2.1c1,0,1.2,0.6,1.2,1.4V43H69.9L69.9,43z"/>
		<path d="M75.6,39.1c0,1.4,0,3-1.3,3c-1.4,0-1.4-1.5-1.4-2.6c0-1.9,0.2-2.9,1.4-2.9C75.5,36.7,75.6,38.2,75.6,39.1L75.6,39.1z
			 M75.6,36.6L75.6,36.6c-0.4-0.6-0.9-0.9-1.6-0.9c-2.3,0-2.3,2-2.3,3.8c0,3.1,1.1,3.6,2.3,3.6c0.7,0,1.2-0.3,1.6-1h0V43h1.1V32.9
			h-1.1V36.6L75.6,36.6z"/>
		<path d="M79.7,38.9c0-2,0.6-2.3,1.3-2.3c0.8,0,1.4,0.2,1.4,2.3H79.7L79.7,38.9z M83.7,39.8v-0.6c0-2.3-0.5-3.4-2.5-3.4
			c-2.5,0-2.7,1.7-2.7,3.8c0,3.1,1.2,3.6,2.7,3.6c1.5,0,2.4-0.7,2.5-2.3h-1.3c0,0.7-0.4,1.3-1.2,1.3c-0.9,0-1.4-0.4-1.4-2.4H83.7
			L83.7,39.8z"/>
		<path d="M90,41c0-2.2-3.5-2.1-3.5-3.4c0-0.6,0.5-1,1.1-1c0.7,0,1.1,0.4,1.1,1.1h1.3c0.1-1.4-1-2-2.2-2c-2,0-2.4,1.2-2.4,1.9
			c0,2.1,3.5,2.1,3.5,3.4c0,0.7-0.5,1.1-1.2,1.1c-1.2,0-1.2-1-1.2-1.4h-1.3c0,1.6,0.9,2.3,2.4,2.3C88.9,43.1,90,42.5,90,41L90,41z"
			/>
		<path d="M96.4,43v-4.8c0-0.3,0.1-1,0.4-1.2c0.3-0.3,0.4-0.3,0.9-0.3c0.9,0,1.1,0.7,1.1,1.4V43h1.1v-5.4c0-1.7-1.2-1.8-1.9-1.8
			c-0.6,0-1.3,0.2-1.7,0.9c-0.3-0.6-1-0.9-1.7-0.9c-0.8,0-1.4,0.3-1.8,1h0v-0.9h-1.2c0,0.5,0.1,1,0.1,1.5V43h1.1v-4.8
			c0-0.3,0.1-0.7,0.3-1c0.2-0.3,0.6-0.5,1-0.5c0.9,0,1.1,0.7,1.1,1.4V43H96.4L96.4,43z"/>
		<path d="M103.1,35.9H102V43h1.1V35.9L103.1,35.9z M101.9,34.1h1.3v-1.2h-1.3V34.1L101.9,34.1z"/>
		<path d="M110.2,43v-4.9c0-1.4-0.4-2.3-1.9-2.3c-0.9,0-1.4,0.3-1.9,1h-0.1v-0.9h-1.2c0,0.5,0.1,1,0.1,1.5V43h1.1v-4.2
			c0-1,0.2-2.1,1.4-2.1c1,0,1.2,0.6,1.2,1.4V43H110.2L110.2,43z"/>
		<path d="M113.4,35.9h-1.1V43h1.1V35.9L113.4,35.9z M112.1,34.1h1.3v-1.2h-1.3V34.1L112.1,34.1z"/>
		<path d="M119.9,41c0-2.2-3.5-2.1-3.5-3.4c0-0.6,0.5-1,1.1-1c0.7,0,1.1,0.4,1.1,1.1h1.3c0.1-1.4-1-2-2.2-2c-2,0-2.4,1.2-2.4,1.9
			c0,2.1,3.5,2.1,3.5,3.4c0,0.7-0.5,1.1-1.2,1.1c-1.2,0-1.2-1-1.2-1.4H115c0,1.6,0.9,2.3,2.4,2.3C118.8,43.1,119.9,42.5,119.9,41
			L119.9,41z"/>
		<path d="M120.6,35.9v0.9h1.2v5c0,0.8,0.5,1.3,1.6,1.3c0.4,0,0.8-0.1,1.1-0.1v-0.9c-0.3,0-0.4,0.1-0.5,0.1c-1,0-1-0.6-1-1v-4.3h1.5
			v-0.9H123V34l-1.2,0.5v1.4H120.6L120.6,35.9z"/>
		<path d="M126.7,38.9c0-2,0.6-2.3,1.3-2.3c0.8,0,1.4,0.2,1.4,2.3H126.7L126.7,38.9z M130.7,39.8v-0.6c0-2.3-0.5-3.4-2.5-3.4
			c-2.5,0-2.7,1.7-2.7,3.8c0,3.1,1.2,3.6,2.7,3.6c1.5,0,2.4-0.7,2.5-2.3h-1.3c0,0.7-0.4,1.3-1.2,1.3c-0.9,0-1.4-0.4-1.4-2.4H130.7
			L130.7,39.8z"/>
		<path d="M133.5,35.9h-1.1V43h1.1v-4.2c0-1,0.3-1.9,1.6-1.9c0.2,0,0.4,0,0.6,0.1v-1.2c-1.1,0-1.7,0.1-2.2,1.2h0V35.9L133.5,35.9z"
			/>
		<path d="M138.1,35.9h-1.2V43h1.2V35.9L138.1,35.9z M136.9,34.1h1.3v-1.2h-1.3V34.1L136.9,34.1z"/>
		<path d="M143.9,40.6c0,1.2-0.8,1.6-1.4,1.6c-0.8,0-1.2-0.6-1.2-1.4v-4.9h-1.1v5.4c0,1.2,0.7,1.8,1.9,1.8c0.7,0,1.4-0.3,1.8-1h0V43
			h1.2c0-0.5-0.1-1-0.1-1.5v-5.6h-1.2V40.6L143.9,40.6z"/>
		<path d="M151.7,43v-4.8c0-0.3,0.1-1,0.4-1.2c0.3-0.3,0.4-0.3,0.9-0.3c0.9,0,1.1,0.7,1.1,1.4V43h1.2v-5.4c0-1.7-1.2-1.8-1.9-1.8
			c-0.6,0-1.3,0.2-1.7,0.9c-0.3-0.6-1-0.9-1.7-0.9c-0.8,0-1.4,0.3-1.8,1h0v-0.9H147c0,0.5,0.1,1,0.1,1.5V43h1.1v-4.8
			c0-0.3,0.1-0.7,0.3-1c0.2-0.3,0.6-0.5,1-0.5c0.9,0,1.1,0.7,1.1,1.4V43H151.7L151.7,43z"/>
		<polygon style="fill:#F5CE00;" points="36.7,83 41.2,83 41.2,108 36.7,108 36.7,83 		"/>
		<polygon style="fill:#ED1C24;" points="36.7,57.9 41.2,57.9 41.2,83 36.7,83 36.7,57.9 		"/>
		<polygon points="36.7,33 41.2,33 41.2,58 36.7,58 36.7,33 		"/>
		<path d="M11.5,58L11.5,58L11.5,58z M11.5,58L11.5,58L11.5,58z M11.5,58L11.5,58L11.5,58z M11.5,58L11.5,58L11.5,58z M22.9,37.2
			c0-1.4-1-2.6-1.4-2.9l-0.3,0.1c0.4,0.5,1.1,1.3,1.1,2.3c0,2.1-2.2,3.9-4.7,3.9c0,0.2,0,0.4,0,0.6c0,0.3,0,0.6-0.1,0.9
			C20.5,42,22.9,39.7,22.9,37.2L22.9,37.2z M19,54.3c-1.2,0-1.5-0.1-1.8-0.1c-0.2,0-0.4,0-0.4,0.3c0,0.2,0.2,0.5,0.4,0.6
			c0.3-0.3,0.7-0.3,1.3-0.3c0.3,0,0.7,0.1,0.9,0.1c0,0.2-0.1,0.4-0.1,0.7c0,0.2,0,0.4,0,0.6c0,0.7-0.1,1.1-0.4,1.4
			c0.1,0,0.2,0.1,0.3,0.1c0.5,0,0.6-0.2,0.6-1.4c0-0.4,0-0.7,0-0.8c0.6,0.5,1.3,1.4,1.3,2c0.2-0.1,0.5-0.4,0.5-0.7
			c0-0.4-0.7-1.1-1.5-1.9c0.1,0,0.4-0.1,0.6-0.1c0.6,0,1.1,0.1,1.4,0.4c0.1-0.1,0.2-0.5,0.2-0.7c0-0.4-0.2-0.3-0.4-0.3
			c-0.6,0-1.4,0.1-2,0.2c-0.2-0.3-1.5-2.1-1.9-3c-0.1,0-0.2-0.1-0.3-0.1c-0.3,0-0.4,0.2-0.5,0.5C18.1,52.7,18.8,53.6,19,54.3
			L19,54.3z M11.8,51.8c-0.1-0.3-0.2-0.5-0.5-0.5c-0.2,0-0.2,0-0.3,0.1c-0.3,1-1.7,2.7-1.9,3c-0.6-0.1-1.4-0.2-2-0.2
			c-0.2,0-0.4,0-0.4,0.3c0,0.2,0.1,0.6,0.2,0.7c0.3-0.3,0.8-0.4,1.4-0.4c0.2,0,0.5,0.1,0.6,0.1c-0.8,0.8-1.5,1.4-1.5,1.9
			c0,0.2,0.2,0.6,0.5,0.7c0-0.6,0.7-1.5,1.3-2c0,0.1,0,0.4,0,0.8c0,1.2,0.1,1.4,0.6,1.4c0.1,0,0.2,0,0.3-0.1
			c-0.2-0.3-0.4-0.7-0.4-1.4c0-0.2,0-0.4,0-0.6c0-0.3,0-0.5-0.1-0.7c0.2,0,0.6-0.1,0.9-0.1c0.6,0,1,0.1,1.3,0.3
			c0.2-0.2,0.4-0.4,0.4-0.6c0-0.3-0.2-0.3-0.4-0.3c-0.3,0-0.6,0.1-1.8,0.1C10.4,53.6,11.1,52.7,11.8,51.8L11.8,51.8z M6.9,36.7
			c0-1,0.7-1.8,1.1-2.3l-0.3-0.1c-0.4,0.3-1.4,1.4-1.4,2.9c0,2.5,2.5,4.8,5.4,4.8c0-0.3,0-0.6,0-0.9c0-0.2,0-0.4,0-0.6
			C9.1,40.6,6.9,38.8,6.9,36.7L6.9,36.7z M14.5,34.8c0.1-0.3,0.3-0.7,0.3-1c0-1.1-0.9-1.6-2.1-1.6c-0.6,0-0.9,0.2-0.9,0.4
			c0,0.2,0.2,0.6,0.3,0.8c0.2-0.1,0.6-0.2,0.9-0.2C13.8,33.1,14.4,34,14.5,34.8L14.5,34.8z M15.1,33.4c0.7,0.1,1.2-0.8,0.5-0.9
			c0.1,0.3-0.4,0.5-0.4,0.5s-0.2-0.4,0.1-0.6c-0.4-0.2-0.5,0-0.5,0.3C15,32.9,15.1,33.1,15.1,33.4L15.1,33.4z M17.4,39.5
			c0.1,0,0.2,0,0.3,0c2,0,3.9-1.3,3.9-2.9c0-0.9-0.4-1.5-0.9-2.2c-0.3,0-0.5,0.1-0.7,0.1c-0.9,0-1.4-0.5-1.4-1
			c0-0.4,0.3-0.7,0.9-0.7c0.8,0,2.3,0.8,3.9,0.8c-0.1,0.1-0.4,0.2-0.7,0.3c0.9,0.8,1.5,1.9,1.7,3l2.3,3.7c0.4,0.6,1.2,1.9,2.5,2.8
			c-1.5,0-2.5,0-3.8-2l-1.2-1.9c-0.1,0.2-0.2,0.5-0.3,0.7l2.4,3.8c0.4,0.6,1.2,1.9,2.5,2.8c-1.5,0-2.5,0-3.8-2l-2.1-3.3
			c-0.2,0.2-0.3,0.3-0.5,0.5l2.9,4.6c0.4,0.6,1.2,1.8,2.5,2.8c-1.5,0-2.5,0-3.8-2l-2.8-4.5c-0.2,0.1-0.4,0.2-0.6,0.3L24,49
			c0.4,0.6,1.2,1.8,2.5,2.8c-1.5,0-2.5,0-3.8-2l-3.5-5.7c-0.2,0.1-0.4,0.2-0.6,0.2l4,6.4c0.4,0.6,1.2,1.9,2.5,2.8
			c-1.5,0-2.5,0-3.8-2l-4.3-6.8l-0.1,0c-0.1,0.4-0.2,0.7-0.2,1.1c0,2.1,1.4,4,3.1,5.5c-0.1,0-0.3,0.1-0.5,0.1c-0.3,0-0.6,0-0.7,0
			c0.4,0.9,1.2,2,1.7,2.6c0.6-0.1,1.4-0.2,1.9-0.2c0.6,0,0.6,0.3,0.6,0.6c0,0.5-0.2,0.9-0.5,1.1c-0.1-0.3-0.3-0.6-1.3-0.6l-0.1,0
			c0.3,0.3,1.2,1.1,1.2,1.7c0,0.4-0.4,1-1,1c0-0.1,0-0.2,0-0.3c0-0.5-0.4-1.1-0.8-1.5c0,0.1,0,0.1,0,0.2c0,1.2-0.1,1.7-0.8,1.7
			c-0.4,0-0.6-0.2-0.7-0.3c0.5-0.4,0.5-0.8,0.5-1.4l0-0.6c0-0.1,0-0.3,0-0.5c-0.3,0-0.4,0-0.6,0c0,0-1.1-0.1-1.3,0.5
			c-0.3-0.3-0.7-0.6-0.7-1c0-0.3,0.1-0.6,0.7-0.6c0.2,0,0.8,0.1,1.4,0.1c-0.1-0.3-0.8-1.3-1.3-2c-0.1,0.3-0.2,0.6-0.5,0.8
			c0-0.4-0.3-1.8-1-2.6c-0.1,0.5-0.2,1.1-0.2,2.3c0,2.9,0.7,5,2.2,5.4c-0.2,0.3-0.6,0.6-1,0.6c-0.5,0-0.8-0.6-1.1-1.2
			c-0.2,0.4-0.6,1.5-1,1.5c-0.4,0-0.9-1-1-1.5c-0.3,0.6-0.6,1.2-1.1,1.2c-0.4,0-0.8-0.3-1-0.6c1.5-0.4,2.2-2.5,2.2-5.4
			c0-1.2-0.1-1.8-0.2-2.3c-0.7,0.8-0.9,2.2-1,2.6c-0.3-0.2-0.4-0.5-0.5-0.8c-0.6,0.7-1.2,1.6-1.3,2c0.5,0,1.2-0.1,1.4-0.1
			c0.5,0,0.7,0.3,0.7,0.6c0,0.4-0.4,0.8-0.7,1c-0.3-0.5-1.3-0.5-1.3-0.5c-0.2,0-0.3,0-0.6,0c0,0.1,0,0.3,0,0.5l0,0.6
			c0,0.7,0,1,0.5,1.4c-0.1,0.1-0.3,0.3-0.7,0.3c-0.7,0-0.8-0.5-0.8-1.7C9,56,9,56,9,55.9c-0.4,0.4-0.8,1-0.8,1.5c0,0.1,0,0.2,0,0.3
			c-0.6,0-1-0.6-1-1c0-0.6,0.9-1.4,1.2-1.7l-0.1,0c-1,0-1.2,0.3-1.3,0.6c-0.3-0.2-0.5-0.6-0.5-1.1c0-0.3,0.1-0.6,0.6-0.6
			c0.5,0,1.3,0.1,1.9,0.2c0.4-0.6,1.3-1.7,1.7-2.6c-0.2,0-0.4,0-0.7,0c-0.2,0-0.4,0-0.5-0.1c1.7-1.5,3.1-3.4,3.1-5.5
			c0-0.3-0.1-0.7-0.2-1.1l-0.1,0L8,51.6c-1.3,2-2.3,2-3.8,2c1.2-1,2.1-2.2,2.5-2.8l4-6.4c-0.2-0.1-0.4-0.1-0.6-0.2l-3.5,5.7
			c-1.3,2-2.3,2-3.8,2c1.3-1,2.1-2.2,2.5-2.8l3.4-5.5c-0.2-0.1-0.4-0.2-0.6-0.3l-2.8,4.5c-1.3,2-2.3,2-3.8,2c1.3-1,2.1-2.2,2.5-2.8
			l2.9-4.6c-0.2-0.2-0.3-0.3-0.5-0.5L4.3,45c-1.3,2-2.3,2-3.8,2c1.3-1,2.1-2.2,2.5-2.8l2.4-3.8c-0.1-0.2-0.2-0.5-0.3-0.7l-1.2,1.9
			c-1.3,2-2.3,2-3.8,2c1.3-1,2.1-2.2,2.5-2.8L4.8,37c0.2-1.2,0.8-2.2,1.7-3c-0.3-0.1-0.5-0.2-0.7-0.3c1.5,0,3-0.8,3.9-0.8
			c0.5,0,0.9,0.3,0.9,0.7c0,0.5-0.5,1-1.4,1c-0.2,0-0.5,0-0.7-0.1c-0.5,0.7-0.9,1.3-0.9,2.2c0,1.6,2,2.9,3.9,2.9c0.1,0,0.2,0,0.3,0
			c0.4-1.3,1.2-2.2,1.9-3c-0.8-0.3-1.7-1-1.7-1.4c0.1-0.1,1.6,0.4,1.8,0.5c0,0,0.1,0,0.1,0c0.2-0.1,0.3-0.3,0.3-0.4
			c-0.2,0-1.1-0.2-1.8-0.4c-0.5-0.2-0.8-0.5-0.8-0.6c0.2,0,0.8,0.3,1.7,0.3c0.3,0,0.4,0,0.7-0.1c-0.2-0.5-0.7-1-1.1-1
			c-0.2,0-0.6,0.1-1,0.3c-0.2-0.4-0.5-0.9-0.5-1.2c0-0.3,0.3-0.7,1.2-0.7c0.3,0,0.5,0,0.7,0.1c0.2,0,0.3,0.1,0.5,0.1
			c0,0,0-0.1,0-0.1c0-0.1,0.1-0.3,0.5-0.3c0.8,0,1.5,0.2,2.5,0.2c0.2,0,0.4,0,0.6-0.1c-0.1,0.2-0.3,0.5-0.6,0.7
			c0.1,0.2,0.5,0.7,0.5,1.5c0,1.3-0.8,2.4-0.8,3.7C16.6,38.5,17.2,39.1,17.4,39.5L17.4,39.5z"/>
		<g>
			<path d="M53,3.3c0-0.7-0.3-1.1-1.1-1.1c-0.3,0-1.2,0-1.2,1.4v2.1c0,1.4,0.4,1.7,1.2,1.7c0.6,0,1-0.2,1.1-0.3V5.3h-1.2V4.6h2v3.1
				c-0.5,0.3-1.1,0.5-1.9,0.5c-1.3,0-2-0.7-2-2.4V3.6c0-1.3,0.6-2.1,2-2.1c1.4,0,2,0.5,2,1.8H53z"/>
			<path d="M55.4,8V1.7h3.3v0.7h-2.5v2h2.3v0.7h-2.3v2.2h2.5V8H55.4z"/>
			<path d="M59.7,8V1.7h3.1v0.7h-2.3v2h2.2v0.7h-2.2V8H59.7z"/>
			<path d="M63.6,5.7V3.6c0-1.3,0.6-2.1,2-2.1c1.3,0,2,0.8,2,2.1v2.1c0,1.8-0.6,2.4-2,2.4C64.2,8.1,63.6,7.4,63.6,5.7z M65.2,0.9
				h-0.8V0h0.8V0.9z M66.7,5.7V3.6c0-1.3-0.9-1.4-1.2-1.4c-0.3,0-1.2,0-1.2,1.4v2.1c0,1.4,0.4,1.7,1.2,1.7
				C66.3,7.4,66.7,7.1,66.7,5.7z M66.8,0.9h-0.8V0h0.8V0.9z"/>
			<path d="M69.8,5.1V8h-0.8V1.7h2.2c1.1,0,1.5,0.8,1.5,1.6c0,0.7-0.4,1.3-1.2,1.4v0c0.7,0.1,1,0.4,1,1.6c0,0.3,0.1,1.3,0.2,1.7
				h-0.8c-0.2-0.4-0.2-1.3-0.2-2.1c-0.1-0.8-0.7-0.8-1-0.8H69.8z M69.8,4.4H71c0.6,0,0.9-0.5,0.9-1.1c0-0.5-0.2-1-0.8-1h-1.2V4.4z"
				/>
			<path d="M73.8,1.7h1.9c0.8,0,1.4,0.3,1.7,1c0.3,0.5,0.3,1.8,0.3,2c0,1.3-0.1,2.1-0.4,2.5C77,7.7,76.4,8,75.3,8h-1.5V1.7z
				 M74.7,7.3h0.8c1.1,0,1.5-0.4,1.5-1.9V4.1c0-1.3-0.4-1.8-1.2-1.8h-1.1V7.3z"/>
			<path d="M79.2,8V1.7h3.3v0.7H80v2h2.3v0.7H80v2.2h2.5V8H79.2z"/>
			<path d="M84.3,5.1V8h-0.8V1.7h2.2c1.1,0,1.5,0.8,1.5,1.6c0,0.7-0.4,1.3-1.2,1.4v0c0.7,0.1,1,0.4,1,1.6c0,0.3,0.1,1.3,0.2,1.7
				h-0.8c-0.2-0.4-0.2-1.3-0.2-2.1c-0.1-0.8-0.7-0.8-1-0.8H84.3z M84.3,4.4h1.2c0.6,0,0.9-0.5,0.9-1.1c0-0.5-0.2-1-0.8-1h-1.2V4.4z"
				/>
			<path d="M92,1.7v0.7h-1.7V8h-0.8V2.4h-1.7V1.7H92z"/>
			<path d="M96.9,8h-1l-1.8-6.3H95l1.4,5.6h0L98,1.7h0.8L96.9,8z"/>
			<path d="M99.6,5.7V3.6c0-1.3,0.6-2.1,2-2.1c1.3,0,2,0.8,2,2.1v2.1c0,1.8-0.6,2.4-2,2.4C100.2,8.1,99.6,7.4,99.6,5.7z M102.7,5.7
				V3.6c0-1.3-0.9-1.4-1.2-1.4s-1.2,0-1.2,1.4v2.1c0,1.4,0.4,1.7,1.2,1.7C102.3,7.4,102.7,7.1,102.7,5.7z"/>
			<path d="M105.7,8H105V1.7h1.3l1.6,5.3h0l1.6-5.3h1.3V8H110V2.4h0L108.2,8h-0.8l-1.7-5.6h0V8z"/>
		</g>
	</g>
</g>
</svg>
