<?xml version="1.0" encoding="utf-8"?>
<!-- Generator: Adobe Illustrator 21.0.2, SVG Export Plug-In . SVG Version: 6.00 Build 0)  -->
<!DOCTYPE svg PUBLIC "-//W3C//DTD SVG 1.1//EN" "http://www.w3.org/Graphics/SVG/1.1/DTD/svg11.dtd">
<svg version="1.1" id="Ebene_1" xmlns="http://www.w3.org/2000/svg" xmlns:xlink="http://www.w3.org/1999/xlink" x="0px" y="0px"
	 width="124.2px" height="61.1px" viewBox="0 0 124.2 61.1" style="enable-background:new 0 0 124.2 61.1;" xml:space="preserve">
<g>
	<g>
		<path d="M43,31.1c0,0.9-0.6,1.3-1.1,1.3c-0.6,0-1-0.5-1-1.1v-3.9H40v4.3c0,1,0.5,1.5,1.5,1.5c0.6,0,1.1-0.3,1.4-0.8h0v0.7h1
			c0-0.4-0.1-0.8-0.1-1.2v-4.5H43V31.1L43,31.1z"/>
		<path d="M49.5,33.1v-3.9c0-1.1-0.3-1.8-1.5-1.8c-0.7,0-1.2,0.2-1.5,0.8h0v-0.7h-1c0,0.4,0.1,0.8,0.1,1.2v4.5h0.9v-3.3
			c0-0.8,0.1-1.7,1.2-1.7c0.8,0,1,0.5,1,1.1v3.9H49.5L49.5,33.1z"/>
		<path d="M54.1,30c0,1.1,0,2.4-1,2.4c-1.2,0-1.2-1.2-1.2-2.1c0-1.5,0.1-2.3,1.1-2.3C54,28,54.1,29.2,54.1,30L54.1,30z M54.1,28
			L54.1,28c-0.3-0.4-0.7-0.7-1.3-0.7c-1.8,0-1.9,1.6-1.9,3c0,2.5,0.9,2.8,1.8,2.8c0.6,0,1-0.3,1.3-0.8h0v0.7H55V25h-0.9V28L54.1,28z
			"/>
		<polygon points="59.9,33.1 59.9,29.4 62.7,29.4 62.7,28.5 59.9,28.5 59.9,25.9 62.8,25.9 62.8,25 58.8,25 58.8,33.1 59.9,33.1 		
			"/>
		<path d="M65.7,32.4c-1,0-1.2-0.7-1.2-2.5c0-1.5,0.5-1.9,1.2-1.9c0.7,0,1.2,0.3,1.2,1.9C66.9,31.8,66.6,32.4,65.7,32.4L65.7,32.4z
			 M65.7,33.2c1.2,0,2.1-0.4,2.1-2.9c0-1.7-0.2-3-2.1-3c-2,0-2.2,1.4-2.2,3C63.5,32.8,64.5,33.2,65.7,33.2L65.7,33.2z"/>
		<path d="M70.2,27.4h-0.9v5.7h0.9v-3.3c0-0.8,0.3-1.5,1.3-1.5c0.2,0,0.3,0,0.5,0.1v-1c-0.9,0-1.4,0.1-1.7,1h0V27.4L70.2,27.4z"/>
		<path d="M76.5,31.4c0-1.7-2.8-1.7-2.8-2.7c0-0.5,0.4-0.8,0.9-0.8c0.6,0,0.9,0.3,0.9,0.9h1c0.1-1.1-0.8-1.6-1.8-1.6
			c-1.6,0-2,1-2,1.5c0,1.7,2.8,1.7,2.8,2.7c0,0.6-0.4,0.9-1,0.9c-0.9,0-0.9-0.8-0.9-1.1h-1c0,1.3,0.7,1.8,1.9,1.8
			C75.7,33.2,76.5,32.7,76.5,31.4L76.5,31.4z"/>
		<path d="M81.6,29.2c0.1-1.3-0.6-1.9-1.7-1.9c-2,0-2.2,1.4-2.2,3c0,2.5,1,2.9,2.2,2.9c0.6,0,1.8-0.4,1.8-2h-1c0,1-0.6,1.2-0.8,1.2
			c-1,0-1.2-0.7-1.2-2.5c0-1.5,0.5-1.9,1.2-1.9c0.3,0,0.8,0.2,0.8,1.2H81.6L81.6,29.2z"/>
		<path d="M87.1,33.1v-4c0-1.3-0.5-1.8-1.5-1.8c-0.7,0-1.2,0.2-1.5,0.8h0V25h-0.9v8.1H84v-3.3c0-1,0.2-1.7,1.2-1.7
			c0.8,0,1,0.5,1,1.2v3.8H87.1L87.1,33.1z"/>
		<path d="M91.7,31.1c0,0.9-0.6,1.3-1.1,1.3c-0.7,0-1-0.5-1-1.1v-3.9h-0.9v4.3c0,1,0.5,1.5,1.5,1.5c0.6,0,1.1-0.3,1.4-0.8h0v0.7h1
			c0-0.4-0.1-0.8-0.1-1.2v-4.5h-0.9V31.1L91.7,31.1z"/>
		<path d="M98.3,33.1v-3.9c0-1.1-0.3-1.8-1.5-1.8c-0.7,0-1.2,0.2-1.5,0.8h0v-0.7h-1c0,0.4,0.1,0.8,0.1,1.2v4.5h0.9v-3.3
			c0-0.8,0.1-1.7,1.2-1.7c0.8,0,1,0.5,1,1.1v3.9H98.3L98.3,33.1z"/>
		<path d="M102.8,30.2c0,0.8,0,2.1-1.1,2.1c-0.7,0-1.1-0.4-1.1-2.2c0-0.8,0-2,1.1-2C102.9,28,102.8,29.4,102.8,30.2L102.8,30.2z
			 M102.8,28.1L102.8,28.1c-0.3-0.5-0.8-0.8-1.3-0.8c-0.5,0-1.8,0.2-1.8,2.8c0,1.7,0.3,3,1.8,3c0.5,0,1-0.3,1.2-0.7h0v1.2
			c0,0.6-0.3,1-1,1c-0.5,0-0.9-0.3-0.9-0.8h-1c-0.1,1,0.8,1.5,1.7,1.5c1.2,0,2.1-0.3,2.1-1.6v-6.2h-0.9V28.1L102.8,28.1z"/>
		<path d="M39.6,15.4v0.7h0.9v5h0.9v-5h1.1v-0.7h-1.1v-1c0-0.5,0.2-0.9,1.1-0.8V13c-0.1,0-0.2,0-0.4,0c-0.8,0-1.6,0.2-1.6,1.4v1.1
			H39.6L39.6,15.4z"/>
		<path d="M44.9,13.3h-1.1v1.2h1.1V13.3L44.9,13.3z M46.9,13.3h-1.1v1.2h1.1V13.3L46.9,13.3z M46.4,19.1c0,0.9-0.6,1.3-1.1,1.3
			c-0.6,0-1-0.5-1-1.1v-3.9h-0.9v4.3c0,1,0.5,1.5,1.5,1.5c0.6,0,1.1-0.3,1.4-0.8h0v0.7h1c0-0.4-0.1-0.8-0.1-1.2v-4.5h-0.9V19.1
			L46.4,19.1z"/>
		<path d="M50,15.4H49v5.7H50v-3.3c0-0.8,0.3-1.5,1.3-1.5c0.2,0,0.3,0,0.5,0.1v-1c-0.9,0-1.4,0.1-1.7,1h0V15.4L50,15.4z"/>
		<path d="M55.5,17.3h1.1c1.1,0,1.8,0.2,1.8,1.5c0,0.6-0.4,1.4-1.5,1.4h-1.5V17.3L55.5,17.3z M55.5,13.9H57c0.9,0,1.2,0.5,1.2,1.2
			c0,0.8-0.4,1.3-1.2,1.3h-1.5V13.9L55.5,13.9z M57.1,21.1c0.9,0,2.4-0.2,2.4-2.3c0-1.1-0.5-1.8-1.7-1.9v-0.1c1-0.2,1.4-0.9,1.4-1.9
			c0-0.2,0-0.6-0.3-1.1c-0.3-0.4-0.7-0.8-1.8-0.8h-2.6v8.1H57.1L57.1,21.1z"/>
		<path d="M61.9,15.4H61v5.7h0.9V15.4L61.9,15.4z M61,14h1v-1h-1V14L61,14z"/>
		<polygon points="64.5,13 63.6,13 63.6,21.1 64.5,21.1 64.5,13 		"/>
		<path d="M69.1,18c0,1.1,0,2.4-1,2.4c-1.2,0-1.2-1.2-1.2-2.1c0-1.5,0.1-2.3,1.1-2.3C69.1,16,69.1,17.2,69.1,18L69.1,18z M69.1,16
			L69.1,16c-0.3-0.4-0.7-0.7-1.3-0.7c-1.8,0-1.9,1.6-1.9,3c0,2.5,0.9,2.8,1.8,2.8c0.6,0,1-0.3,1.3-0.8h0v0.7H70V13h-0.9V16L69.1,16z
			"/>
		<path d="M74.7,19.1c0,0.9-0.6,1.3-1.1,1.3c-0.7,0-1-0.5-1-1.1v-3.9h-0.9v4.3c0,1,0.5,1.5,1.5,1.5c0.6,0,1.1-0.3,1.4-0.8h0v0.7h1
			c0-0.4-0.1-0.8-0.1-1.2v-4.5h-0.9V19.1L74.7,19.1z"/>
		<path d="M81.3,21.1v-3.9c0-1.1-0.3-1.8-1.5-1.8c-0.7,0-1.2,0.2-1.5,0.8h0v-0.7h-1c0,0.4,0.1,0.8,0.1,1.2v4.5h0.9v-3.3
			c0-0.8,0.1-1.7,1.2-1.7c0.8,0,1,0.5,1,1.1v3.9H81.3L81.3,21.1z"/>
		<path d="M85.8,18.2c0,0.8,0,2.1-1.1,2.1c-0.7,0-1.1-0.4-1.1-2.2c0-0.8,0-2,1.1-2C85.9,16,85.8,17.4,85.8,18.2L85.8,18.2z
			 M85.8,16.1L85.8,16.1c-0.3-0.5-0.8-0.8-1.3-0.8c-0.5,0-1.8,0.2-1.8,2.8c0,1.7,0.3,3,1.8,3c0.5,0,1-0.3,1.2-0.7h0v1.2
			c0,0.6-0.3,1-1,1c-0.5,0-0.9-0.3-0.9-0.8h-1c-0.1,1,0.8,1.5,1.7,1.5c1.2,0,2.1-0.3,2.1-1.6v-6.2h-0.9V16.1L85.8,16.1z"/>
		<path d="M41.1,5.3h1.1c1.1,0,1.8,0.2,1.8,1.5c0,0.6-0.4,1.4-1.5,1.4h-1.5V5.3L41.1,5.3z M41.1,1.9h1.5c0.9,0,1.2,0.5,1.2,1.2
			c0,0.8-0.4,1.3-1.2,1.3h-1.5V1.9L41.1,1.9z M42.6,9.1c0.9,0,2.4-0.2,2.4-2.3c0-1.1-0.5-1.8-1.7-1.9V4.8c1-0.2,1.4-0.9,1.4-1.9
			c0-0.2,0-0.6-0.3-1.1C44.2,1.3,43.8,1,42.7,1H40v8.1H42.6L42.6,9.1z"/>
		<path d="M49.4,7.1c0,0.9-0.6,1.3-1.1,1.3c-0.6,0-1-0.5-1-1.1V3.4h-0.9v4.3c0,1,0.5,1.5,1.5,1.5c0.6,0,1.1-0.3,1.4-0.8h0v0.7h1
			c0-0.4-0.1-0.8-0.1-1.2V3.4h-0.9V7.1L49.4,7.1z"/>
		<path d="M55.9,9.1V5.1c0-1.1-0.3-1.8-1.5-1.8c-0.7,0-1.2,0.2-1.5,0.8h0V3.4h-1c0,0.4,0.1,0.8,0.1,1.2v4.5h0.9V5.7
			C52.9,4.9,53,4,54,4c0.8,0,1,0.5,1,1.1v3.9H55.9L55.9,9.1z"/>
		<path d="M60.5,6c0,1.1,0,2.4-1,2.4c-1.2,0-1.2-1.2-1.2-2.1c0-1.5,0.1-2.3,1.1-2.3C60.4,4,60.5,5.2,60.5,6L60.5,6z M60.5,4L60.5,4
			c-0.3-0.4-0.7-0.7-1.3-0.7c-1.8,0-1.9,1.6-1.9,3c0,2.5,0.9,2.8,1.8,2.8c0.6,0,1-0.3,1.3-0.8h0v0.7h0.9V1h-0.9V4L60.5,4z"/>
		<path d="M63.8,5.8c0-1.6,0.5-1.8,1.1-1.8C65.5,4,66,4.2,66,5.8H63.8L63.8,5.8z M66.9,6.5V6c0-1.9-0.4-2.8-2-2.8
			c-2,0-2.2,1.4-2.2,3c0,2.5,1,2.9,2.2,2.9c1.2,0,2-0.6,2-1.8h-1c0,0.6-0.4,1.1-1,1.1c-0.7,0-1.1-0.3-1.1-1.9H66.9L66.9,6.5z"/>
		<path d="M72,7.4c0-1.7-2.8-1.7-2.8-2.7C69.2,4.2,69.6,4,70,4c0.6,0,0.9,0.3,0.9,0.9h1c0.1-1.1-0.8-1.6-1.8-1.6
			c-1.6,0-1.9,1-1.9,1.5c0,1.7,2.8,1.7,2.8,2.7c0,0.6-0.4,0.9-1,0.9c-0.9,0-0.9-0.8-0.9-1.1h-1c0,1.3,0.7,1.8,1.9,1.8
			C71.1,9.2,72,8.7,72,7.4L72,7.4z"/>
		<path d="M77.1,9.1V5.2c0-0.2,0-0.8,0.3-1C77.7,4,77.8,4,78.1,4C78.9,4,79,4.6,79,5.1v3.9h0.9V4.8c0-1.3-1-1.5-1.5-1.5
			c-0.5,0-1,0.1-1.3,0.7c-0.2-0.5-0.8-0.7-1.3-0.7c-0.7,0-1.1,0.2-1.4,0.8h0V3.4h-1c0,0.4,0.1,0.8,0.1,1.2v4.5h0.9V5.2
			c0-0.2,0-0.5,0.2-0.8C74.6,4.2,75,4,75.3,4c0.7,0,0.9,0.5,0.9,1.1v3.9H77.1L77.1,9.1z"/>
		<path d="M82.5,3.4h-0.9v5.7h0.9V3.4L82.5,3.4z M81.5,2h1V1h-1V2L81.5,2z"/>
		<path d="M88.1,9.1V5.1c0-1.1-0.3-1.8-1.5-1.8c-0.7,0-1.2,0.2-1.5,0.8h0V3.4h-1c0,0.4,0.1,0.8,0.1,1.2v4.5h0.9V5.7
			c0-0.8,0.1-1.7,1.2-1.7c0.8,0,1,0.5,1,1.1v3.9H88.1L88.1,9.1z"/>
		<path d="M90.7,3.4h-0.9v5.7h0.9V3.4L90.7,3.4z M89.7,2h1V1h-1V2L89.7,2z"/>
		<path d="M95.9,7.4c0-1.7-2.8-1.7-2.8-2.7C93.1,4.2,93.5,4,94,4c0.6,0,0.9,0.3,0.9,0.9h1c0.1-1.1-0.8-1.6-1.8-1.6
			c-1.6,0-1.9,1-1.9,1.5c0,1.7,2.8,1.7,2.8,2.7c0,0.6-0.4,0.9-1,0.9C93,8.4,93,7.7,93,7.3h-1c0,1.3,0.7,1.8,2,1.8
			C95,9.2,95.9,8.7,95.9,7.4L95.9,7.4z"/>
		<path d="M96.5,3.4v0.7h0.9v4c0,0.6,0.4,1,1.3,1c0.3,0,0.6-0.1,0.9-0.1V8.3c-0.2,0-0.3,0-0.4,0c-0.8,0-0.8-0.5-0.8-0.8V4.1h1.2V3.4
			h-1.2V1.9l-0.9,0.4v1.1H96.5L96.5,3.4z"/>
		<path d="M101.3,5.8c0-1.6,0.5-1.8,1.1-1.8c0.7,0,1.1,0.2,1.1,1.8H101.3L101.3,5.8z M104.5,6.5V6c0-1.9-0.4-2.8-2-2.8
			c-2,0-2.2,1.4-2.2,3c0,2.5,1,2.9,2.2,2.9c1.2,0,2-0.6,2-1.8h-1c0,0.6-0.4,1.1-1,1.1c-0.7,0-1.1-0.3-1.1-1.9H104.5L104.5,6.5z"/>
		<path d="M106.8,3.4h-0.9v5.7h0.9V5.7c0-0.8,0.3-1.5,1.3-1.5c0.2,0,0.3,0,0.5,0.1v-1c-0.9,0-1.4,0.1-1.7,1h0V3.4L106.8,3.4z"/>
		<path d="M110.5,3.4h-0.9v5.7h0.9V3.4L110.5,3.4z M109.5,2h1V1h-1V2L109.5,2z"/>
		<path d="M115.1,7.1c0,0.9-0.6,1.3-1.1,1.3c-0.7,0-1-0.5-1-1.1V3.4h-0.9v4.3c0,1,0.5,1.5,1.5,1.5c0.6,0,1.1-0.3,1.4-0.8h0v0.7h1
			c0-0.4-0.1-0.8-0.1-1.2V3.4h-0.9V7.1L115.1,7.1z"/>
		<path d="M121.4,9.1V5.2c0-0.2,0-0.8,0.3-1C122,4,122.1,4,122.4,4c0.7,0,0.9,0.5,0.9,1.1v3.9h0.9V4.8c0-1.3-1-1.5-1.5-1.5
			c-0.5,0-1,0.1-1.3,0.7c-0.2-0.5-0.8-0.7-1.3-0.7c-0.7,0-1.1,0.2-1.4,0.8h0V3.4h-1c0,0.4,0.1,0.8,0.1,1.2v4.5h0.9V5.2
			c0-0.2,0-0.5,0.2-0.8c0.1-0.2,0.5-0.4,0.8-0.4c0.7,0,0.9,0.5,0.9,1.1v3.9H121.4L121.4,9.1z"/>
		<polygon style="fill:#F5CE00;" points="29.4,41.1 32.9,41.1 32.9,61.1 29.4,61.1 29.4,41.1 		"/>
		<polygon style="fill:#ED1C24;" points="29.4,21 32.9,21 32.9,41.1 29.4,41.1 29.4,21 		"/>
		<polygon points="29.4,1.1 32.9,1.1 32.9,21.1 29.4,21.1 29.4,1.1 		"/>
		<path d="M9.2,21.1L9.2,21.1L9.2,21.1z M9.2,21.1L9.2,21.1L9.2,21.1z M9.2,21.1L9.2,21.1L9.2,21.1z M9.2,21.1L9.2,21.1L9.2,21.1z
			 M18.3,4.4c0-1.1-0.8-2-1.1-2.3l-0.2,0c0.3,0.4,0.9,1,0.9,1.9c0,1.7-1.7,3.1-3.7,3.1c0,0.2,0,0.3,0,0.4c0,0.2,0,0.5,0,0.7
			C16.4,8.3,18.3,6.4,18.3,4.4L18.3,4.4z M15.2,18.1c-1,0-1.2-0.1-1.4-0.1c-0.2,0-0.3,0-0.3,0.2c0,0.2,0.2,0.4,0.3,0.5
			c0.2-0.2,0.5-0.3,1-0.3c0.2,0,0.6,0,0.7,0.1c0,0.1,0,0.3,0,0.6c0,0.1,0,0.3,0,0.5c0,0.6-0.1,0.9-0.3,1.1c0,0,0.2,0,0.2,0
			c0.4,0,0.5-0.2,0.5-1.1c0-0.3,0-0.6,0-0.6c0.5,0.4,1,1.1,1,1.6c0.2-0.1,0.4-0.3,0.4-0.5c0-0.3-0.6-0.9-1.2-1.5
			c0.1,0,0.3-0.1,0.5-0.1c0.5,0,0.9,0.1,1.1,0.3c0.1-0.1,0.2-0.4,0.2-0.6c0-0.3-0.2-0.3-0.3-0.3c-0.5,0-1.1,0.1-1.6,0.2
			c-0.2-0.2-1.2-1.6-1.5-2.4c-0.1,0-0.1,0-0.3,0c-0.3,0-0.3,0.2-0.4,0.4C14.5,16.8,15,17.6,15.2,18.1L15.2,18.1z M9.5,16.1
			c-0.1-0.2-0.1-0.4-0.4-0.4c-0.1,0-0.2,0-0.3,0c-0.3,0.8-1.3,2.2-1.5,2.4C6.9,18.1,6.2,18,5.7,18c-0.1,0-0.3,0-0.3,0.3
			c0,0.2,0.1,0.5,0.2,0.6c0.2-0.3,0.6-0.3,1.1-0.3c0.2,0,0.4,0.1,0.5,0.1C6.6,19.2,6,19.7,6,20c0,0.2,0.2,0.4,0.4,0.5
			c0-0.5,0.5-1.2,1-1.6c0,0.1,0,0.3,0,0.6c0,1,0.1,1.1,0.5,1.1c0.1,0,0.2,0,0.2,0c-0.2-0.2-0.3-0.5-0.3-1.1c0-0.2,0-0.3,0-0.5
			c0-0.3,0-0.4,0-0.6c0.1,0,0.5-0.1,0.7-0.1c0.5,0,0.8,0,1,0.3c0.2-0.1,0.3-0.4,0.3-0.5C9.9,18,9.7,18,9.6,18
			c-0.3,0-0.5,0.1-1.4,0.1C8.3,17.6,8.9,16.8,9.5,16.1L9.5,16.1z M5.5,4c0-0.8,0.5-1.5,0.9-1.9l-0.2,0C5.8,2.4,5,3.3,5,4.4
			c0,2,2,3.8,4.3,3.9c0-0.2,0-0.4,0-0.7c0-0.2,0-0.3,0-0.4C7.3,7.2,5.5,5.7,5.5,4L5.5,4z M11.6,2.5c0.1-0.2,0.2-0.5,0.2-0.8
			c0-0.9-0.7-1.3-1.7-1.3c-0.5,0-0.7,0.2-0.7,0.3c0,0.2,0.2,0.5,0.2,0.6c0.2-0.1,0.5-0.2,0.7-0.2C11,1.2,11.5,1.9,11.6,2.5L11.6,2.5
			z M12.1,1.4c0.6,0.1,0.9-0.6,0.4-0.7c0.1,0.2-0.3,0.4-0.3,0.4s-0.1-0.3,0-0.5c-0.3-0.2-0.4,0-0.4,0.2C12,1,12.1,1.2,12.1,1.4
			L12.1,1.4z M13.9,6.3c0.1,0,0.2,0,0.3,0c1.6,0,3.1-1,3.1-2.3c0-0.7-0.3-1.2-0.7-1.7c-0.2,0-0.4,0.1-0.6,0.1
			c-0.7,0-1.1-0.4-1.1-0.8c0-0.3,0.3-0.6,0.7-0.6c0.7,0,1.9,0.6,3.1,0.6c-0.1,0.1-0.3,0.2-0.6,0.3c0.7,0.6,1.2,1.5,1.4,2.4l1.9,3
			c0.3,0.5,1,1.5,2,2.2c-1.2,0-2,0-3-1.6l-1-1.5c-0.1,0.2-0.2,0.4-0.3,0.6L21,10c0.3,0.5,1,1.5,2,2.3c-1.2,0-2,0-3-1.6l-1.6-2.6
			c-0.1,0.1-0.3,0.3-0.4,0.4l2.3,3.7c0.3,0.5,1,1.5,2,2.2c-1.2,0-2,0-3-1.6l-2.3-3.6c-0.1,0.1-0.3,0.2-0.5,0.3l2.8,4.4
			c0.3,0.5,1,1.5,2,2.2c-1.2,0-2,0-3-1.6L15.3,10c-0.2,0.1-0.3,0.1-0.5,0.2l3.2,5.1c0.3,0.5,1,1.5,2,2.2c-1.2,0-2,0-3-1.6l-3.4-5.5
			l-0.1,0c-0.1,0.3-0.2,0.6-0.2,0.8c0,1.7,1.1,3.2,2.5,4.4c-0.1,0-0.2,0.1-0.4,0.1c-0.3,0-0.5,0-0.6,0c0.3,0.7,1,1.6,1.3,2.1
			c0.4-0.1,1.1-0.1,1.5-0.1c0.4,0,0.5,0.3,0.5,0.5c0,0.4-0.2,0.7-0.4,0.9c-0.1-0.2-0.2-0.5-1.1-0.5l-0.1,0c0.2,0.3,1,0.9,1,1.4
			c0,0.3-0.4,0.8-0.8,0.8c0-0.1,0-0.2,0-0.3c0-0.4-0.3-0.9-0.6-1.2c0,0.1,0,0.1,0,0.2c0,0.9-0.1,1.4-0.7,1.4c-0.3,0-0.5-0.2-0.6-0.2
			c0.4-0.4,0.4-0.6,0.4-1.2l0-0.5c0-0.1,0-0.3,0-0.4c-0.2,0-0.3,0-0.5,0c0,0-0.8-0.1-1,0.4c-0.2-0.2-0.6-0.5-0.6-0.8
			c0-0.2,0.1-0.5,0.5-0.5c0.2,0,0.7,0.1,1.1,0.1c-0.1-0.3-0.6-1-1.1-1.6c-0.1,0.2-0.2,0.4-0.4,0.6c0-0.4-0.2-1.5-0.8-2.1
			c-0.1,0.4-0.2,0.9-0.2,1.8c0,2.3,0.6,4,1.7,4.3c-0.2,0.3-0.5,0.5-0.8,0.5c-0.4,0-0.7-0.5-0.9-1c-0.1,0.3-0.5,1.2-0.8,1.2
			c-0.3,0-0.7-0.8-0.8-1.2c-0.2,0.5-0.5,1-0.9,1c-0.3,0-0.7-0.2-0.8-0.5c1.2-0.3,1.7-2,1.7-4.3c0-1-0.1-1.4-0.2-1.8
			c-0.5,0.6-0.8,1.8-0.8,2.1c-0.2-0.2-0.3-0.4-0.4-0.6c-0.4,0.5-1,1.3-1.1,1.6c0.4,0,0.9-0.1,1.1-0.1c0.4,0,0.5,0.2,0.5,0.5
			c0,0.3-0.3,0.6-0.6,0.8c-0.2-0.4-1-0.4-1-0.4c-0.2,0-0.2,0-0.5,0c0,0.1,0,0.3,0,0.4l0,0.5c0,0.5,0,0.8,0.4,1.2
			c-0.1,0-0.3,0.2-0.6,0.2c-0.6,0-0.7-0.4-0.7-1.4c0-0.1,0-0.1,0-0.2c-0.3,0.3-0.6,0.8-0.6,1.2c0,0.1,0,0.2,0,0.3
			c-0.5,0-0.8-0.5-0.8-0.8c0-0.5,0.7-1.1,1-1.4l-0.1,0c-0.8,0-1,0.3-1.1,0.5c-0.2-0.2-0.4-0.5-0.4-0.9c0-0.2,0-0.5,0.5-0.5
			c0.4,0,1.1,0.1,1.5,0.1c0.3-0.5,1-1.4,1.3-2.1c-0.1,0-0.3,0-0.6,0c-0.1,0-0.3,0-0.4-0.1c1.4-1.2,2.5-2.7,2.5-4.4
			c0-0.3-0.1-0.6-0.2-0.8l-0.1,0L6.4,16c-1,1.6-1.8,1.6-3,1.6c1-0.8,1.7-1.8,2-2.2l3.2-5.1C8.4,10.1,8.2,10.1,8,10l-2.8,4.5
			c-1,1.6-1.8,1.6-3,1.6c1-0.8,1.7-1.7,2-2.2l2.8-4.4C6.7,9.4,6.6,9.3,6.4,9.2l-2.3,3.6c-1,1.6-1.8,1.6-3,1.6c1-0.8,1.7-1.7,2-2.2
			l2.3-3.7C5.3,8.3,5.2,8.2,5,8.1l-1.6,2.6c-1,1.6-1.8,1.6-3,1.6c1-0.8,1.7-1.7,2-2.3L4.3,7C4.2,6.8,4.1,6.6,4,6.4L3,7.9
			C2,9.6,1.2,9.5,0,9.5c1-0.8,1.7-1.8,2-2.2l1.9-3C4,3.4,4.5,2.5,5.2,1.9C5,1.8,4.8,1.7,4.7,1.6C5.9,1.6,7.1,1,7.8,1
			c0.4,0,0.7,0.3,0.7,0.6c0,0.4-0.4,0.8-1.1,0.8c-0.2,0-0.4,0-0.6-0.1C6.3,2.8,6,3.3,6,4c0,1.3,1.6,2.3,3.1,2.3c0.1,0,0.2,0,0.3,0
			c0.3-1.1,1-1.8,1.5-2.4C10.3,3.6,9.6,3,9.6,2.8c0.1,0,1.3,0.3,1.4,0.4c0,0,0.1,0,0.1,0c0.1,0,0.3-0.3,0.3-0.3
			c-0.1,0-0.9-0.1-1.4-0.3C9.6,2.4,9.4,2.1,9.4,2c0.1,0,0.6,0.2,1.3,0.2c0.3,0,0.3,0,0.6,0c-0.2-0.4-0.5-0.8-0.9-0.8
			c-0.2,0-0.5,0.1-0.8,0.2C9.4,1.3,9.2,0.9,9.2,0.7c0-0.3,0.3-0.6,1-0.6c0.2,0,0.4,0,0.6,0.1c0.1,0,0.3,0.1,0.4,0.1c0,0,0-0.1,0-0.1
			c0-0.1,0.1-0.2,0.4-0.2c0.6,0,1.2,0.2,2,0.2c0.2,0,0.3,0,0.4-0.1c0,0.2-0.3,0.4-0.5,0.6C13.7,0.9,14,1.3,14,1.9
			c0,1-0.7,1.9-0.7,2.9C13.3,5.4,13.8,6,13.9,6.3L13.9,6.3z"/>
	</g>
</g>
<rect x="-15.8" y="-44.3" style="fill:none;" width="168" height="126.4"/>
</svg>
