<?xml version="1.0" encoding="utf-8"?>
<!-- Generator: Adobe Illustrator 21.0.2, SVG Export Plug-In . SVG Version: 6.00 Build 0)  -->
<!DOCTYPE svg PUBLIC "-//W3C//DTD SVG 1.1//EN" "http://www.w3.org/Graphics/SVG/1.1/DTD/svg11.dtd">
<svg version="1.1" id="Ebene_1" xmlns="http://www.w3.org/2000/svg" xmlns:xlink="http://www.w3.org/1999/xlink" x="0px" y="0px"
	 width="321.6px" height="121.3px" viewBox="0 0 321.6 121.3" style="enable-background:new 0 0 321.6 121.3;" xml:space="preserve"
	>
<path style="fill:#0883AA;" d="M292.5,61.1h-23l11.7-33.7L292.5,61.1z M321.6,92.7L287.8,0h-14.2l-33.7,92.7h18.9l5.6-16.4h32.9
	l5.5,16.4H321.6z M234.3,92.7V0h-18.1v56.8L179.5,0h-16.1v92.7h18.1V35.8l36.7,56.9H234.3z M56.5,62.2V0H38.4v61.4
	c0,10.7-5.7,15.9-14.6,15.9c-6,0-8.9-2.2-11.8-5.2L0,84c6.9,6.9,13.8,9.5,23.8,9.5C41,93.5,56.5,82.7,56.5,62.2"/>
<path style="fill:#0883AA;" d="M130.9,68.5c-5.8,6-12.8,9.1-21.1,9.1c-8.2,0-15.3-3-21.1-9.1c-5.9-6-8.8-13.3-8.8-21.8
	c0-8.5,2.9-15.7,8.8-21.7c5.9-6,12.9-9,21.1-9c8.2,0,15.2,3,21.1,9c5.8,6,8.7,13.2,8.7,21.7C139.6,55.2,136.7,62.4,130.9,68.5
	 M143.8,13.5C134.5,4.5,123.2,0,109.8,0C96.6,0,85.3,4.5,76,13.5c-9.3,9-14,19.9-14,32.6c0,13.5,4.6,24.8,13.7,33.8
	c9.1,9,20.5,13.5,34.2,13.5c13.3,0,24.6-4.5,33.9-13.5c9.3-9,13.9-20.1,13.9-33.3C157.6,33.6,153,22.6,143.8,13.5"/>
<path style="fill:#FFFFFF;" d="M109.8,89.4c1.8,0,3.3-1.5,3.3-3.3c0-1.8-1.5-3.3-3.3-3.3c-1.8,0-3.3,1.5-3.3,3.3
	C106.5,87.9,108,89.4,109.8,89.4"/>
<path style="fill:#FFFFFF;" d="M109.8,11.4c1.8,0,3.3-1.5,3.3-3.3s-1.5-3.3-3.3-3.3c-1.8,0-3.3,1.5-3.3,3.3S108,11.4,109.8,11.4"/>
<g>
	<path style="fill:#EE7C26;" d="M6.8,121.3c-3.9,0-7-2.7-7-6.7V102h3.7v12.4c0,2.2,1.3,3.5,3.3,3.5s3.3-1.3,3.3-3.5V102h3.7v12.6
		C13.9,118.6,10.8,121.3,6.8,121.3z"/>
	<path style="fill:#EE7C26;" d="M28.8,121.1l-7.6-11.7v11.7h-3.7V102h3.3l7.6,11.7V102h3.7v19.1H28.8z"/>
	<path style="fill:#EE7C26;" d="M48.1,119.3c-1.3,1.3-3.1,1.8-5,1.8h-6.9V102H43c2,0,3.8,0.6,5,1.8c2.1,2.1,1.9,4.8,1.9,7.7
		C50,114.4,50.2,117.2,48.1,119.3z M45.5,106.5c-0.6-0.8-1.5-1.2-2.8-1.2h-2.8v12.5h2.8c1.3,0,2.1-0.4,2.8-1.2
		c0.7-0.9,0.8-2.2,0.8-5.1C46.3,108.6,46.2,107.4,45.5,106.5z"/>
	<path style="fill:#EE7C26;" d="M70.6,119.3c-1.3,1.3-3.1,1.8-5,1.8h-6.9V102h6.9c2,0,3.8,0.6,5,1.8c2.1,2.1,1.9,4.8,1.9,7.7
		C72.6,114.4,72.8,117.2,70.6,119.3z M68,106.5c-0.6-0.8-1.5-1.2-2.8-1.2h-2.8v12.5h2.8c1.3,0,2.1-0.4,2.8-1.2
		c0.7-0.9,0.8-2.2,0.8-5.1C68.8,108.6,68.7,107.4,68,106.5z"/>
	<path style="fill:#EE7C26;" d="M75.9,121.1V102h3.7v19.1H75.9z"/>
	<path style="fill:#EE7C26;" d="M83.5,121.1V102h12.6v3.3h-8.9v4.5h7.5v3.3h-7.5v4.6h8.9v3.3H83.5z"/>
	<path style="fill:#EE7C26;" d="M111.9,105.3v15.8h-3.7v-15.8h-5V102h13.7v3.3H111.9z"/>
	<path style="fill:#EE7C26;" d="M119.4,121.1V102h3.7v19.1H119.4z"/>
	<path style="fill:#EE7C26;" d="M127.1,121.1V102h12.6v3.3h-8.9v4.5h7.5v3.3h-7.5v4.6h8.9v3.3H127.1z"/>
	<path style="fill:#EE7C26;" d="M146.6,105.3v4.7h7.5v3.3h-7.5v7.8h-3.7V102h12.6v3.3H146.6z"/>
	<path style="fill:#EE7C26;" d="M163.2,121.3c-2.9,0-5.1-0.6-7-2.5l2.4-2.4c1.2,1.2,2.8,1.6,4.6,1.6c2.2,0,3.4-0.8,3.4-2.4
		c0-0.7-0.2-1.2-0.6-1.6c-0.4-0.3-0.8-0.5-1.7-0.7l-2.3-0.3c-1.6-0.2-2.8-0.8-3.7-1.6c-0.9-0.9-1.4-2.1-1.4-3.8
		c0-3.4,2.5-5.8,6.7-5.8c2.6,0,4.5,0.6,6.2,2.2l-2.4,2.3c-1.2-1.2-2.7-1.3-3.9-1.3c-2,0-3,1.1-3,2.4c0,0.5,0.2,1,0.6,1.4
		c0.4,0.3,1,0.6,1.8,0.8l2.3,0.3c1.7,0.2,2.8,0.7,3.7,1.5c1,1,1.5,2.4,1.5,4.1C170.3,119.2,167.2,121.3,163.2,121.3z"/>
	<path style="fill:#EE7C26;" d="M173.3,121.1V102h12.6v3.3H177v4.5h7.5v3.3H177v4.6h8.9v3.3H173.3z"/>
	<path style="fill:#EE7C26;" d="M189.1,121.1V102h12.6v3.3h-8.9v4.5h7.5v3.3h-7.5v4.6h8.9v3.3H189.1z"/>
	<path style="fill:#EE7C26;" d="M218.4,121.1V110l-3.7,7.3h-2.5l-3.7-7.3v11.1h-3.7V102h3.7l5,10.3l5-10.3h3.7v19.1H218.4z"/>
	<path style="fill:#EE7C26;" d="M237.7,119.2c-1.3,1.3-3,2.1-5.2,2.1c-2.2,0-3.8-0.8-5.2-2.1c-1.9-1.9-1.9-4.3-1.9-7.6
		s-0.1-5.7,1.9-7.6c1.3-1.3,3-2.1,5.2-2.1c2.2,0,3.8,0.8,5.2,2.1c1.9,1.9,1.9,4.3,1.9,7.6S239.6,117.3,237.7,119.2z M234.9,106.2
		c-0.5-0.6-1.4-1-2.4-1c-1,0-1.9,0.4-2.4,1c-0.7,0.8-0.9,1.7-0.9,5.4s0.2,4.6,0.9,5.4c0.5,0.6,1.4,1,2.4,1c1,0,1.9-0.4,2.4-1
		c0.7-0.8,0.9-1.7,0.9-5.4S235.6,107,234.9,106.2z"/>
	<path style="fill:#EE7C26;" d="M254.2,121.1l-7.6-11.7v11.7h-3.7V102h3.3l7.6,11.7V102h3.7v19.1H254.2z"/>
	<path style="fill:#EE7C26;" d="M266.7,121.3c-2.9,0-5.1-0.6-7-2.5l2.4-2.4c1.2,1.2,2.8,1.6,4.6,1.6c2.2,0,3.4-0.8,3.4-2.4
		c0-0.7-0.2-1.2-0.6-1.6c-0.4-0.3-0.8-0.5-1.7-0.7l-2.3-0.3c-1.6-0.2-2.8-0.8-3.7-1.6c-0.9-0.9-1.4-2.1-1.4-3.8
		c0-3.4,2.5-5.8,6.7-5.8c2.6,0,4.5,0.6,6.2,2.2l-2.4,2.3c-1.2-1.2-2.7-1.3-3.9-1.3c-2,0-3,1.1-3,2.4c0,0.5,0.2,1,0.6,1.4
		c0.4,0.3,1,0.6,1.8,0.8l2.3,0.3c1.7,0.2,2.8,0.7,3.7,1.5c1,1,1.5,2.4,1.5,4.1C273.8,119.2,270.7,121.3,266.7,121.3z"/>
	<path style="fill:#EE7C26;" d="M284.1,105.3v15.8h-3.7v-15.8h-5V102h13.7v3.3H284.1z"/>
	<path style="fill:#EE7C26;" d="M291.6,121.1V102h12.6v3.3h-8.9v4.5h7.5v3.3h-7.5v4.6h8.9v3.3H291.6z"/>
	<path style="fill:#EE7C26;" d="M317.5,121.1l-3.7-7.6H311v7.6h-3.7V102h7.5c3.9,0,6.2,2.7,6.2,5.9c0,2.7-1.6,4.4-3.5,5l4.3,8.2
		H317.5z M314.6,105.3H311v5.1h3.5c1.6,0,2.7-1,2.7-2.5C317.3,106.4,316.2,105.3,314.6,105.3z"/>
</g>
<path style="fill:#FFFFFF;" d="M73.8,46.9c0-1.8-1.5-3.3-3.3-3.3c-1.8,0-3.3,1.5-3.3,3.3c0,1.8,1.5,3.3,3.3,3.3
	C72.3,50.1,73.8,48.7,73.8,46.9"/>
<path style="fill:#FFFFFF;" d="M152.3,46.9c0-1.8-1.5-3.3-3.3-3.3c-1.8,0-3.3,1.5-3.3,3.3c0,1.8,1.5,3.3,3.3,3.3
	C150.8,50.1,152.3,48.7,152.3,46.9"/>
<path style="fill:#FFFFFF;" d="M84.3,72.3C83,71,81,71,79.7,72.3c-1.3,1.3-1.3,3.3,0,4.6c1.3,1.3,3.3,1.3,4.6,0
	C85.6,75.7,85.6,73.6,84.3,72.3"/>
<path style="fill:#FFFFFF;" d="M139.8,16.8c-1.3-1.3-3.3-1.3-4.6,0c-1.3,1.3-1.3,3.3,0,4.6c1.3,1.3,3.3,1.3,4.6,0
	C141.1,20.2,141.1,18.1,139.8,16.8"/>
<path style="fill:#FFFFFF;" d="M135.2,72.3c-1.3,1.3-1.3,3.3,0,4.6c1.3,1.3,3.3,1.3,4.6,0c1.3-1.3,1.3-3.3,0-4.6
	C138.5,71,136.5,71,135.2,72.3"/>
<path style="fill:#FFFFFF;" d="M79.7,16.8c-1.3,1.3-1.3,3.3,0,4.6c1.3,1.3,3.3,1.3,4.6,0c1.3-1.3,1.3-3.3,0-4.6
	C83,15.5,81,15.5,79.7,16.8"/>
</svg>
